<?xml version="1.0" standalone="no"?>
<!DOCTYPE svg PUBLIC "-//W3C//DTD SVG 20010904//EN"
 "http://www.w3.org/TR/2001/REC-SVG-20010904/DTD/svg10.dtd">
<svg version="1.0" xmlns="http://www.w3.org/2000/svg"
 width="512.000000pt" height="512.000000pt" viewBox="0 0 512.000000 512.000000"
 preserveAspectRatio="xMidYMid meet">

<g transform="translate(0.000000,512.000000) scale(0.100000,-0.100000)"
fill="#000000" stroke="none">
<path d="M2500 4911 c-86 -28 -150 -82 -191 -161 -22 -41 -24 -59 -27 -219 -2
-96 -1 -189 3 -208 3 -19 22 -51 41 -72 l34 -38 0 -125 0 -125 -352 -6 c-194
-3 -391 -11 -438 -17 -232 -29 -1112 -174 -1157 -190 -180 -63 -305 -252 -290
-440 5 -72 459 -1750 483 -1787 8 -13 25 -25 39 -29 35 -9 241 62 260 89 11
16 15 51 15 144 l0 122 36 -24 c22 -15 51 -25 73 -25 43 0 78 -26 83 -60 6
-52 251 -147 439 -171 l89 -12 0 -666 c0 -506 3 -670 12 -679 18 -18 46 -14
60 8 12 19 24 20 368 20 344 0 356 -1 368 -20 14 -22 42 -26 60 -8 9 9 12 129
12 480 l0 468 40 0 40 0 0 -468 c0 -351 3 -471 12 -480 18 -18 46 -14 60 8 12
19 24 20 368 20 344 0 356 -1 368 -20 14 -22 42 -26 60 -8 9 9 12 173 12 679
l0 666 89 12 c111 14 241 51 340 97 88 40 113 61 106 84 -7 23 41 54 81 52 19
-2 45 7 67 22 l37 25 0 -122 c0 -93 4 -128 15 -144 19 -27 225 -98 260 -89 14
4 31 16 39 29 22 34 478 1714 483 1782 11 129 -40 259 -137 348 -105 98 -114
100 -664 188 -714 114 -683 111 -1083 116 l-353 6 0 42 c0 39 2 43 30 48 40 9
103 74 118 123 6 23 12 96 12 162 0 113 1 121 21 127 33 11 88 65 111 109 27
50 39 226 18 251 -10 12 -38 15 -132 15 -116 0 -122 1 -201 36 -85 38 -184 53
-237 35z m197 -441 c51 -16 104 -30 118 -30 l25 0 0 -112 c0 -127 -13 -164
-69 -193 -40 -20 -68 -19 -147 7 -48 16 -71 19 -83 11 -20 -13 -26 -40 -12
-57 12 -14 74 -39 124 -50 25 -6 27 -10 27 -59 0 -51 -2 -54 -60 -112 l-60
-59 -60 59 -60 59 0 169 0 168 -30 17 c-62 36 -61 117 2 143 26 11 36 9 74 -9
l45 -22 24 24 c13 13 27 36 31 50 3 14 9 26 12 26 3 0 47 -13 99 -30z m-1867
-734 c0 -4 66 -323 75 -362 4 -19 -3 -22 -98 -38 -56 -9 -109 -24 -117 -32
-13 -13 5 -94 158 -707 95 -380 172 -698 172 -705 0 -8 -23 5 -51 30 -81 69
-85 71 -108 58 -20 -10 -21 -19 -21 -180 l0 -168 -81 -27 c-44 -15 -84 -23
-89 -19 -12 13 -460 1664 -466 1721 -17 140 79 300 216 360 53 23 410 83 410
69z m3665 -25 c181 -31 216 -42 282 -90 88 -64 152 -208 139 -314 -6 -57 -454
-1708 -466 -1721 -5 -4 -45 4 -89 19 l-81 27 0 168 c0 161 -1 170 -21 180 -23
13 -27 11 -108 -58 -28 -25 -51 -38 -51 -30 0 7 77 325 172 705 153 613 171
694 158 707 -8 8 -61 23 -117 32 -95 16 -102 19 -98 38 9 39 75 358 75 362 0
8 37 3 205 -25z m-2855 -1001 l0 -681 -46 -19 c-106 -46 -202 -63 -354 -64
l-145 -1 -163 649 c-89 357 -161 650 -160 652 4 4 825 142 851 143 16 1 17
-38 17 -679z m2283 610 c231 -39 422 -72 423 -73 2 -1 -70 -295 -160 -652
l-162 -650 -144 1 c-151 1 -248 18 -354 64 l-46 19 0 681 c0 465 3 680 10 680
6 0 201 -32 433 -70z"/>
<path d="M1052 1548 c-6 -6 -12 -20 -12 -29 0 -31 25 -40 106 -37 60 2 79 7
88 21 8 12 8 22 0 35 -9 13 -28 18 -90 20 -53 2 -83 -1 -92 -10z"/>
<path d="M3892 1468 c-6 -6 -12 -20 -12 -29 0 -31 25 -40 106 -37 60 2 79 7
88 21 8 12 8 22 0 35 -9 13 -28 18 -90 20 -53 2 -83 -1 -92 -10z"/>
<path d="M1212 1347 c-53 -54 -61 -74 -40 -95 22 -22 43 -13 96 41 53 54 61
74 40 95 -22 22 -43 13 -96 -41z"/>
<path d="M1411 1346 c-8 -9 -11 -43 -9 -92 2 -60 7 -79 21 -88 12 -8 22 -8 35
0 13 9 18 28 20 88 3 81 -6 106 -38 106 -10 0 -23 -6 -29 -14z"/>
<path d="M3812 1308 c-22 -22 -13 -43 41 -96 54 -53 74 -61 95 -40 22 22 13
43 -41 96 -54 53 -74 61 -95 40z"/>
<path d="M3651 1266 c-8 -9 -11 -43 -9 -92 2 -60 7 -79 21 -88 12 -8 22 -8 35
0 13 9 18 28 20 88 3 81 -6 106 -38 106 -10 0 -23 -6 -29 -14z"/>
</g>
</svg>
