<?xml version="1.0"?>
<svg xmlns="http://www.w3.org/2000/svg" xmlns:xlink="http://www.w3.org/1999/xlink" xmlns:svgjs="http://svgjs.com/svgjs" version="1.1" width="512" height="512" x="0" y="0" viewBox="0 0 512 512" style="enable-background:new 0 0 512 512" xml:space="preserve" class=""><g><g xmlns="http://www.w3.org/2000/svg" id="solid"><path d="m48 96h240a8 8 0 0 0 0-16h-240a8 8 0 0 0 0 16z" fill="#a23327" data-original="#000000" style="" class=""/><path d="m363.924 372.615-5.791 6.581v4.804h19.336l-.125-11.385z" fill="#a23327" data-original="#000000" style="" class=""/><path d="m445.453 352.357 1.185 8.686 3.631 3.144 12.657-14.618-8.689-7.357z" fill="#a23327" data-original="#000000" style="" class=""/><path d="m390.4 278.923a8 8 0 0 1 7.732 4.56l18.3 38.633 23.019 21.646 8.105-9.247-20.106-26.808a7.988 7.988 0 0 1 -1.532-3.761l-7.124-55.408h-50.045l-4.925 50.762v61.313h13.23v-55.859a7.974 7.974 0 0 1 .4-2.49l5.846-17.847a8 8 0 0 1 7.1-5.494z" fill="#a23327" data-original="#000000" style="" class=""/><path d="m72 112h192v16h-192z" fill="#a23327" data-original="#000000" style="" class=""/><path d="m271.481 327.824a11.675 11.675 0 0 0 -18.591-9.943l-6.568 4.845a8 8 0 0 1 -12.259-3.683l-2.811-7.663a11.675 11.675 0 0 0 -20.992-1.95 16.05 16.05 0 0 0 0 16.432l13 21.834a27.594 27.594 0 0 1 14.71 5.654l24.455-11.816a16.048 16.048 0 0 0 9.056-13.71z" fill="#a23327" data-original="#000000" style="" class=""/><path d="m244.127 410.1 1.222 1.119a27.609 27.609 0 0 1 37.124 9.471c.564.908 1.061 1.842 1.527 2.788l14.594-13.378a16.047 16.047 0 0 0 4.729-15.737 11.675 11.675 0 0 0 -20.665-4.174l-4.9 6.53a8 8 0 0 1 -12.8 0l-4.9-6.53a11.675 11.675 0 0 0 -20.666 4.174 16.052 16.052 0 0 0 4.735 15.737z" fill="#a23327" data-original="#000000" style="" class=""/><path d="m115.588 428.324a11.6 11.6 0 0 0 -3.67-3.331l-2.4 1.16a7.978 7.978 0 0 1 -8.922-1.348 11.741 11.741 0 0 0 -5.766 7.2l-2.167 7.868a8 8 0 0 1 -11.911 4.686l-6.952-4.283a11.675 11.675 0 0 0 -17.7 11.448 16.049 16.049 0 0 0 10.16 12.913l34.481 13.263 16.206-33.2a16.051 16.051 0 0 0 -1.359-16.376z" fill="#a23327" data-original="#000000" style="" class=""/><path d="m349.621 58.606 7.532 6.9.015.014 21.406 19.622 28.953-26.541a17.316 17.316 0 0 0 5.1-16.978 12.711 12.711 0 0 0 -22.5-4.544l-5.155 6.874a8 8 0 0 1 -12.8 0l-5.155-6.874a12.712 12.712 0 0 0 -22.5 4.544 17.314 17.314 0 0 0 5.104 16.983z" fill="#a23327" data-original="#000000" style="" class=""/><path d="m360.449 207.6a7.994 7.994 0 0 1 1.53 4.7v21.23h60v-21.23a8.012 8.012 0 0 1 .845-3.579l33.8-67.6a17.92 17.92 0 0 0 -1.612-18.731l-37.664-51.081-5.371 4.924 30.67 50.049a8 8 0 0 1 .124 8.149l-23.384 40.923a8 8 0 0 1 -6.946 4.031h-52.441a8 8 0 0 1 -6.842-3.855l-17.713-29.23a8 8 0 0 1 -.151-8.03l26.168-47.1-7.73-7.086-31.432 53.932a16.851 16.851 0 0 0 .926 18.4z" fill="#a23327" data-original="#000000" style="" class=""/><path d="m393.237 168.644v-4.617a10 10 0 0 1 1.056-4.474l7.851-13.27-20.438-16.351-8.249 14.353 7.748 15.2a10.015 10.015 0 0 1 1.092 4.544v4.617z" fill="#a23327" data-original="#000000" style="" class=""/><path d="m402.016 120.953a12.642 12.642 0 0 0 -13.991.636l19.086 15.268a12.728 12.728 0 0 0 -5.095-15.904z" fill="#a23327" data-original="#000000" style="" class=""/><path d="m283.1 453.486-15.1 26.514h6a30.034 30.034 0 0 0 30-30v-23.147l-17.087 15.663a32.033 32.033 0 0 1 -3.813 10.97z" fill="#a23327" data-original="#000000" style="" class=""/><path d="m268.883 429.139a11.675 11.675 0 0 0 -20.951 2.351l-2.663 7.715a8 8 0 0 1 -12.186 3.918l-6.661-4.718a11.723 11.723 0 0 0 -6.765-2.142 11.6 11.6 0 0 0 -3.555.555 11.657 11.657 0 0 0 -8.076 11.885 16.049 16.049 0 0 0 9.318 13.534l33.567 15.431 18.286-32.1a16.048 16.048 0 0 0 -.314-16.429z" fill="#a23327" data-original="#000000" style="" class=""/><path d="m192.061 449.76a27.6 27.6 0 0 1 5.416-18.334 7.969 7.969 0 0 1 -2.44-1.529l-1.487-1.363a11.639 11.639 0 0 0 -13.88 3.739l-4.9 6.53a8 8 0 0 1 -12.8 0l-4.9-6.53a11.675 11.675 0 0 0 -20.666 4.174 16.047 16.047 0 0 0 4.729 15.737l27.234 24.963 24.43-22.394a32.025 32.025 0 0 1 -.736-4.993z" fill="#a23327" data-original="#000000" style="" class=""/><path d="m200.507 469.4-11.567 10.6h28.738l-7.016-3.226a32.031 32.031 0 0 1 -10.155-7.374z" fill="#a23327" data-original="#000000" style="" class=""/><path d="m424 456v-24h-32a8 8 0 0 1 -8-8v-24h-64v80h136v-16h-24a8 8 0 0 1 -8-8z" fill="#a23327" data-original="#000000" style="" class=""/><path d="m274.061 144h-212.122a29.973 29.973 0 0 0 -29.939 29.938v276.062a30.03 30.03 0 0 0 29.607 29.99l-1.091-.42a32.032 32.032 0 0 1 -20.282-25.776 27.672 27.672 0 0 1 39.9-28.292 27.874 27.874 0 0 1 11.993-14.283l-15.614-26.219a32.038 32.038 0 0 1 0-32.8 27.674 27.674 0 0 1 48.851 2.435 27.633 27.633 0 0 1 33.049 3.108 27.627 27.627 0 0 1 3.232-3.328l-28.85-13.265a32.035 32.035 0 0 1 -18.6-27.014 27.673 27.673 0 0 1 41.618-25.7 27.672 27.672 0 0 1 48.794-3.371 32.082 32.082 0 0 1 2.85 5.827 27.651 27.651 0 0 1 37.905 12.786 27.672 27.672 0 0 1 42.1 24.892 32.033 32.033 0 0 1 -18.078 27.366l-22.041 10.65c.214.649.416 1.305.584 1.976.09.36.168.72.245 1.081.842-.077 1.692-.124 2.551-.124a27.826 27.826 0 0 1 20.637 9.238 27.631 27.631 0 0 1 32.64-6.483v-198.336a29.973 29.973 0 0 0 -29.939-29.938z" fill="#a23327" data-original="#000000" style="" class=""/><path d="m177.528 288.562a11.736 11.736 0 0 0 -7.463 7.3l-2.663 7.715a8 8 0 0 1 -12.186 3.918l-6.66-4.718a11.675 11.675 0 0 0 -18.4 10.3 16.049 16.049 0 0 0 9.319 13.534l33.567 15.431 18.286-32.1a16.048 16.048 0 0 0 -.314-16.428 11.656 11.656 0 0 0 -13.486-4.952z" fill="#a23327" data-original="#000000" style="" class=""/><path d="m196.268 333.6-8.633 15.154a27.858 27.858 0 0 1 12.808 8.086 27.712 27.712 0 0 1 6.476-5.316l-10.406-17.478c-.087-.146-.161-.296-.245-.446z" fill="#a23327" data-original="#000000" style="" class=""/><path d="m225.82 411.59-9.726 8.916a27.861 27.861 0 0 1 17.584 3.558c.192-.431.4-.856.61-1.275l-.972-.892a32.047 32.047 0 0 1 -7.496-10.307z" fill="#a23327" data-original="#000000" style="" class=""/><path d="m200.443 378a8 8 0 0 1 -6.4-3.2l-4.9-6.53a11.675 11.675 0 0 0 -20.666 4.174 16.051 16.051 0 0 0 4.729 15.737l27.234 24.963 23.118-21.192c.1-.49.193-.981.315-1.47a27.6 27.6 0 0 1 8.993-14.416 15.988 15.988 0 0 0 -.464-3.622 11.675 11.675 0 0 0 -20.665-4.174l-4.9 6.53a8 8 0 0 1 -6.394 3.2z" fill="#a23327" data-original="#000000" style="" class=""/><path d="m143.179 367.046a11.732 11.732 0 0 0 -10.289 1.785l-6.568 4.844a8 8 0 0 1 -12.259-3.683l-2.811-7.662a11.726 11.726 0 0 0 -7.6-7.159 11.655 11.655 0 0 0 -13.39 5.21 16.047 16.047 0 0 0 0 16.432l18.9 31.745 33.265-16.073a16.048 16.048 0 0 0 9.057-13.711 11.656 11.656 0 0 0 -8.305-11.728z" fill="#a23327" data-original="#000000" style="" class=""/><path d="m127.052 460.475-9.531 19.525h30.286l-17.478-16.021a32.084 32.084 0 0 1 -3.277-3.504z" fill="#a23327" data-original="#000000" style="" class=""/><path d="m160.47 398.035a32.036 32.036 0 0 1 -11.085 8.856l-21.964 10.609c.411.5.816 1 1.192 1.529.035.05.065.1.1.151a27.668 27.668 0 0 1 39.661 1.659 27.822 27.822 0 0 1 9.35-6.815l-15.324-14.045c-.68-.622-1.315-1.279-1.93-1.944z" fill="#a23327" data-original="#000000" style="" class=""/></g></g></svg>
