<?xml version="1.0" encoding="iso-8859-1"?>
<!-- Generator: Adobe Illustrator 19.0.0, SVG Export Plug-In . SVG Version: 6.00 Build 0)  -->
<svg version="1.1" id="Capa_1" xmlns="http://www.w3.org/2000/svg" xmlns:xlink="http://www.w3.org/1999/xlink" x="0px" y="0px"
	 viewBox="0 0 512 512" style="enable-background:new 0 0 512 512;" xml:space="preserve">
<g>
	<g>
		<path d="M256,0C114.848,0,0,114.848,0,256s114.848,256,256,256s256-114.848,256-256S397.152,0,256,0z M128,240
			c0-17.28,9.28-32.352,23.008-40.8l-33.056-26.752c-6.88-5.568-7.968-15.648-2.4-22.496c5.536-6.848,15.648-7.936,22.496-2.4
			l68.096,55.104C217.504,211.84,224,225.44,224,240c0,26.464-21.536,48-48,48S128,266.464,128,240z M347.584,411.04
			c-3.136,3.296-7.36,4.96-11.584,4.96c-3.968,0-7.936-1.472-11.04-4.416c-38.656-36.8-99.264-36.768-137.952,0
			c-6.368,6.048-16.512,5.888-22.624-0.576c-6.08-6.4-5.856-16.544,0.576-22.624c51.008-48.544,131.008-48.608,182.048,0
			C353.44,394.496,353.696,404.64,347.584,411.04z M394.048,172.448L360.96,199.2C374.72,207.648,384,222.72,384,240
			c0,26.464-21.536,48-48,48s-48-21.536-48-48c0-14.592,6.496-28.192,17.824-37.344l68.128-55.104
			c6.88-5.568,16.96-4.512,22.496,2.368S400.928,166.88,394.048,172.448z"/>
	</g>
</g>
<g>
</g>
<g>
</g>
<g>
</g>
<g>
</g>
<g>
</g>
<g>
</g>
<g>
</g>
<g>
</g>
<g>
</g>
<g>
</g>
<g>
</g>
<g>
</g>
<g>
</g>
<g>
</g>
<g>
</g>
</svg>
