<?xml version="1.0" encoding="iso-8859-1"?>
<!-- Generator: Adobe Illustrator 19.0.0, SVG Export Plug-In . SVG Version: 6.00 Build 0)  -->
<svg version="1.1" id="Capa_1" xmlns="http://www.w3.org/2000/svg" xmlns:xlink="http://www.w3.org/1999/xlink" x="0px" y="0px"
	 viewBox="0 0 512 512" style="enable-background:new 0 0 512 512;" xml:space="preserve">
<g>
	<g>
		<path d="M256,0C114.848,0,0,114.848,0,256s114.848,256,256,256s256-114.848,256-256S397.152,0,256,0z M339.2,128
			c10.144,0,20.224,2.88,28.8,8.032c8.608-5.152,18.656-8.032,28.8-8.032c28.736,0,51.2,21.344,51.2,48.64
			c0,29.152-34.432,54.24-71.648,77.024c-2.56,1.568-5.44,2.336-8.352,2.336c-2.944,0-5.888-0.8-8.48-2.432
			C324.896,231.968,288,206.4,288,176.64C288,149.344,310.464,128,339.2,128z M131.2,128c10.144,0,20.224,2.88,28.8,8.032
			c8.576-5.152,18.656-8.032,28.8-8.032c28.704,0,51.2,21.344,51.2,48.64c0,29.152-34.432,54.24-71.648,76.992
			c-2.56,1.6-5.472,2.368-8.352,2.368c-2.944,0-5.888-0.8-8.48-2.432C116.928,231.936,80,206.368,80,176.64
			C80,149.344,102.496,128,131.2,128z M440.672,308.352C417.536,390.56,341.6,448,256,448S94.464,390.56,71.328,308.352
			c-1.376-4.864-0.384-10.016,2.656-14.016c3.008-4,7.712-6.336,12.736-6.336h338.56c4.992,0,9.728,2.336,12.736,6.336
			S442.016,303.488,440.672,308.352z"/>
	</g>
</g>
<g>
</g>
<g>
</g>
<g>
</g>
<g>
</g>
<g>
</g>
<g>
</g>
<g>
</g>
<g>
</g>
<g>
</g>
<g>
</g>
<g>
</g>
<g>
</g>
<g>
</g>
<g>
</g>
<g>
</g>
</svg>
